<?xml version="1.0" encoding="utf-8"?>
<!-- Generator: Adobe Illustrator 21.1.0, SVG Export Plug-In . SVG Version: 6.00 Build 0)  -->
<svg version="1.1" id="Layer_1" xmlns="http://www.w3.org/2000/svg" xmlns:xlink="http://www.w3.org/1999/xlink" x="0px" y="0px"
	 viewBox="0 0 240.3 141.7" style="enable-background:new 0 0 240.3 141.7;" xml:space="preserve">
<style type="text/css">
	.st0{fill:#FFFFFF;}
</style>
<path class="st0" d="M220,24.9C220,24.9,219.9,24.9,220,24.9l-14.5-4.8c-0.2,0-0.4,0-0.5,0l-0.5-0.2c-12,10.7-33.6,11.8-58.1,10
	c-10.7-0.9-22-2.1-33.2-3.6c-7.9-0.9-16.1-2-23.9-2.7c-0.4,0-0.9,0-1.3-0.2c-0.9,0-1.8-0.2-2.7-0.2C76.4,22.4,68,22,60.1,22
	c-21.8,0.5-38.2,11.1-42.2,41.5c0,0.2,0,0.4,0,0.4c0,0.2,0,0.4,0,0.4c-3.2,24.3,4.3,49.9,5,50.4c0.2,0,0.2,0.2,0.4,0.2l12.2,2.3h0.2
	c0.2,0,0.4,0,0.5-0.2c16.6-15,55.2-11.1,92.6-7.3c19.1,2,39,3.9,55,3.4c25.7-1.1,39-14.1,41.8-41.1C228.3,46.7,220.6,25.2,220,24.9
	 M39.2,29.5c32.2-19.7,126.5,24.3,178.2-1.6c0,0,18.8,58.4-14.8,76.3c-34,18.1-135.8-21.3-178,6.6C24.9,109.6,6.1,49.7,39.2,29.5
	 M156.2,110.3c0.7,0,1.6,0.2,2.3,0.2C157.8,110.5,157,110.3,156.2,110.3"/>
<path class="st0" d="M67.8,69.2c2.7-1.8,4.1-4.5,4.1-7.9c0-7-4.5-10.5-13.2-10.5H39.7v40.7h19.7c6.6,0,14.5-3.2,14.5-12.2
	C73.7,74.4,71.7,71,67.8,69.2 M58.1,83h-8.2V59H57c4.5,0,5,1.8,5,3.6c0,2.5-1.4,3.8-4.3,3.8h-2.3L52,73.9h6.6c3.6,0,5.2,1.4,5.2,4.6
	C63.5,80.5,62.9,83,58.1,83"/>
<rect x="76.2" y="50.6" class="st0" width="10.2" height="40.7"/>
<polygon class="st0" points="110.8,73.5 105.8,50.4 89.8,50.4 89.8,91 99.8,91 99.8,66.2 105.8,91 116,91 121.9,66 121.9,91 
	132.1,91 132.1,50.4 116,50.4 "/>
<path class="st0" d="M163.9,69.4c2.7-1.8,4.1-4.5,4.1-7.9c0-7-4.5-10.5-13.2-10.5h-18.9v40.7h19.5c6.6,0,14.5-3.2,14.5-12.2
	C169.8,74.7,167.7,71.2,163.9,69.4 M154.3,83.1h-8.2V59.4h7.1c4.5,0,5,1.8,5,3.6c0,2.5-1.4,3.8-4.3,3.8h-2.3l-3.8,7.5h6.6
	c3.6,0,5.2,1.4,5.2,4.6C159.6,80.8,159.1,83.1,154.3,83.1"/>
<path class="st0" d="M191.4,50.3c-11.3,0-20.4,9.1-20.4,20.4S180.2,91,191.4,91c11.3,0,20.4-9.1,20.4-20.4
	C212,59.4,202.9,50.3,191.4,50.3 M191.4,81.4c-5.7,0-10.7-4.8-10.7-10.7s4.8-10.7,10.7-10.7c5.9,0,10.5,4.8,10.5,10.7
	C202.2,76.7,197.3,81.4,191.4,81.4"/>
<path class="st0" d="M52.9,45.6c-0.9,0.4-1.8,0.7-2.7,0.9c-0.9,0.2-2,0.4-2.9,0.4c-1.1,0-2-0.2-2.9-0.5c-0.9-0.4-1.6-0.7-2.3-1.4
	c-0.7-0.5-1.1-1.3-1.6-2.1c-0.4-0.9-0.5-1.8-0.5-2.9c0-1.1,0.2-2,0.5-2.9c0.4-0.9,0.9-1.6,1.6-2.1s1.4-1.1,2.3-1.4
	c0.9-0.4,1.8-0.5,2.9-0.5c1.1,0,2.1,0.2,3,0.4c0.9,0.2,1.8,0.7,2.3,1.3l-2.1,2.1c-0.4-0.4-0.9-0.7-1.4-0.9c-0.5-0.2-1.1-0.4-2-0.4
	c-0.7,0-1.3,0.2-1.8,0.4c-0.5,0.2-0.9,0.5-1.3,0.9c-0.4,0.4-0.7,0.9-0.9,1.3c-0.2,0.5-0.4,1.1-0.4,1.6c0,0.5,0.2,1.1,0.4,1.6
	c0.2,0.5,0.5,0.9,0.9,1.3c0.4,0.4,0.9,0.7,1.3,0.9c0.5,0.2,1.1,0.4,1.8,0.4s1.3,0,1.6-0.2c0.5-0.2,0.9-0.4,1.1-0.4V41h-2.5v-2.7h5.4
	v7.3H52.9z"/>
<path class="st0" d="M54.7,33.6h5.2c0.7,0,1.4,0,2,0.2c0.5,0.2,1.1,0.4,1.6,0.7c0.5,0.4,0.9,0.7,1.1,1.3c0.4,0.5,0.4,1.1,0.4,2
	c0,0.9-0.2,1.6-0.7,2.3c-0.5,0.7-1.3,1.1-2.1,1.3l3.4,5.5h-3.6L59,41.7h-1.4v5.2h-3L54.7,33.6L54.7,33.6z M57.8,39h1.8
	c0.4,0,0.5,0,0.9,0c0.4,0,0.5,0,0.9-0.2c0.2,0,0.4-0.2,0.5-0.4c0.2-0.2,0.2-0.5,0.2-0.9c0-0.4,0-0.5-0.2-0.7
	c-0.2-0.2-0.4-0.4-0.5-0.4c-0.2-0.2-0.5-0.2-0.7-0.2c-0.4,0-0.5,0-0.9,0h-2V39z"/>
<path class="st0" d="M77.8,41.5c0,0.7-0.2,1.4-0.4,2.1c-0.2,0.7-0.5,1.3-1.1,1.6c-0.5,0.5-1.1,0.9-1.8,1.1c-0.7,0.2-1.6,0.4-2.5,0.4
	s-1.8-0.2-2.5-0.4c-0.7-0.4-1.3-0.7-1.8-1.1c-0.5-0.5-0.9-1.1-1.1-1.6c-0.2-0.5-0.2-1.3-0.2-2.1v-7.9h3v7.9c0,0.4,0,0.7,0.2,1.1
	c0.2,0.4,0.4,0.7,0.5,0.9c0.2,0.2,0.5,0.4,0.9,0.5c0.4,0.2,0.7,0.2,1.1,0.2c0.4,0,0.7,0,1.1-0.2c0.4-0.2,0.5-0.4,0.9-0.5
	c0.2-0.2,0.4-0.5,0.5-0.9c0.2-0.4,0.2-0.7,0.2-1.1v-7.9h3L77.8,41.5L77.8,41.5z"/>
<path class="st0" d="M79.9,33.6h5c0.7,0,1.4,0,2,0.2c0.5,0.2,1.3,0.4,1.6,0.7c0.5,0.4,0.9,0.7,1.1,1.3c0.4,0.5,0.4,1.1,0.4,2
	c0,0.7-0.2,1.4-0.4,2c-0.2,0.5-0.5,0.9-1.1,1.3c-0.4,0.4-0.9,0.5-1.6,0.7c-0.5,0.2-1.3,0.2-2,0.2h-2.1v5h-3V33.6
	C79.7,33.6,79.9,33.6,79.9,33.6z M82.8,39.2h2c0.2,0,0.5,0,0.7,0c0.2,0,0.5-0.2,0.7-0.2c0.2-0.2,0.4-0.4,0.5-0.5
	c0.2-0.2,0.2-0.5,0.2-0.7c0-0.4,0-0.5-0.2-0.7c-0.2-0.2-0.4-0.4-0.5-0.5c-0.2-0.2-0.5-0.2-0.9-0.2c-0.4,0-0.5,0-0.9,0h-1.6V39.2z"/>
<path class="st0" d="M91.2,40.1c0-1.1,0.2-2,0.5-2.9c0.4-0.9,0.9-1.6,1.6-2.1c0.7-0.5,1.4-1.1,2.3-1.4c0.9-0.4,1.8-0.5,2.9-0.5
	s2,0.2,2.9,0.5c0.9,0.4,1.6,0.7,2.3,1.4c0.7,0.5,1.1,1.3,1.6,2.1c0.4,0.9,0.5,1.8,0.5,2.9c0,1.1-0.2,2-0.5,2.9
	c-0.4,0.9-0.9,1.6-1.6,2.1s-1.4,1.1-2.3,1.4c-0.9,0.4-1.8,0.5-2.9,0.5s-2-0.2-2.9-0.5c-0.9-0.4-1.6-0.7-2.3-1.4
	c-0.7-0.5-1.1-1.3-1.6-2.1C91.4,42,91.2,41.1,91.2,40.1 M94.2,40.1c0,0.5,0.2,1.3,0.4,1.6c0.2,0.5,0.5,0.9,0.9,1.3
	c0.4,0.4,0.9,0.7,1.3,0.9c0.5,0.2,1.1,0.4,1.8,0.4c0.7,0,1.3-0.2,1.8-0.4c0.5-0.2,0.9-0.5,1.3-0.9c0.4-0.4,0.7-0.9,0.9-1.3
	c0.2-0.5,0.4-1.1,0.4-1.6c0-0.5-0.2-1.1-0.4-1.6c-0.2-0.5-0.5-0.9-0.9-1.3c-0.4-0.4-0.9-0.7-1.3-0.9c-0.5-0.2-1.1-0.4-1.8-0.4
	c-0.7,0-1.3,0.2-1.8,0.4c-0.5,0.2-0.9,0.5-1.3,0.9c-0.4,0.4-0.7,0.9-0.9,1.3C94.4,39,94.2,39.5,94.2,40.1"/>
<path class="st0" d="M218.3,106.9c0-0.7,0.2-1.4,0.4-2.1c0.4-0.7,0.7-1.3,1.1-1.6c0.5-0.5,1.1-0.9,1.6-1.1c0.7-0.2,1.3-0.4,2.1-0.4
	c0.7,0,1.4,0.2,2,0.4c0.7,0.4,1.3,0.7,1.6,1.1c0.5,0.5,0.9,1.1,1.1,1.6c0.4,0.7,0.4,1.3,0.4,2.1c0,0.7-0.2,1.4-0.4,2.1
	c-0.4,0.7-0.7,1.3-1.1,1.6c-0.5,0.5-1.1,0.9-1.6,1.1c-0.7,0.4-1.3,0.4-2,0.4s-1.4-0.2-2.1-0.4c-0.7-0.4-1.3-0.7-1.6-1.1
	c-0.5-0.5-0.9-1.1-1.1-1.6C218.3,108.3,218.3,107.6,218.3,106.9 M219,106.9c0,0.7,0.2,1.3,0.4,1.8c0.2,0.5,0.5,1.1,0.9,1.4
	c0.4,0.4,0.9,0.7,1.4,0.9s1.1,0.4,1.8,0.4c0.5,0,1.3-0.2,1.8-0.4c0.5-0.2,1.1-0.5,1.4-0.9c0.4-0.4,0.7-0.9,0.9-1.4
	c0.2-0.5,0.4-1.1,0.4-1.8c0-0.7-0.2-1.3-0.4-1.8c-0.2-0.5-0.5-1.1-0.9-1.4c-0.4-0.4-0.9-0.7-1.4-0.9c-0.5-0.2-1.1-0.4-1.8-0.4
	c-0.5,0-1.3,0.2-1.8,0.4s-1.1,0.5-1.4,0.9s-0.7,0.9-0.9,1.4C219.1,105.7,219,106.2,219,106.9 M221.5,103.9h2.1
	c0.7,0,1.3,0.2,1.6,0.4c0.4,0.4,0.5,0.7,0.5,1.3c0,0.5-0.2,0.9-0.5,1.3c-0.4,0.2-0.7,0.4-1.1,0.4l1.8,2.7H225l-1.6-2.7h-1.1v2.9
	h-0.9L221.5,103.9L221.5,103.9z M222.4,106.6h1.1c0.2,0,0.4,0,0.5,0c0.2,0,0.4,0,0.5-0.2c0.2,0,0.4-0.2,0.4-0.4
	c0-0.2,0.2-0.4,0.2-0.5c0-0.2,0-0.4-0.2-0.5c0-0.2-0.2-0.2-0.4-0.4c-0.2,0-0.4-0.2-0.4-0.2c-0.2,0-0.4,0-0.5,0h-1.3
	C222.4,104.4,222.4,106.6,222.4,106.6z"/>
<g>
	<path class="st0" d="M22.7,122.8h1.4l3.4,8.9h-1.8l-0.9-2.1h-3l-0.9,2.1h-1.8L22.7,122.8z M24.9,128.4l-1.1-3.4l-1.3,3.4H24.9z"/>
	<path class="st0" d="M28.6,131.8v-8.9h1.6v7.5h4.5v1.4H28.6z"/>
	<path class="st0" d="M36,131.8v-8.9h1.6v8.9H36z"/>
	<path class="st0" d="M46.9,131.8v-5.9l-2.3,4.5h-1.1l-2.3-4.5v5.9h-1.6v-8.9h1.8L44,128l2.7-5.2h1.8v8.9H46.9z"/>
	<path class="st0" d="M56.5,130.3v1.4h-6.1v-8.9h6.1v1.4h-4.3v2.1H56v1.3h-3.8v2.3L56.5,130.3L56.5,130.3z"/>
	<path class="st0" d="M59.6,126v5.5h-1.6v-8.9h1.3l4.6,5.7v-5.7h1.6v8.9h-1.3L59.6,126z"/>
	<path class="st0" d="M74.2,124.3h-2.9v7.5h-1.6v-7.5h-2.9v-1.4h7.5L74.2,124.3L74.2,124.3z"/>
	<path class="st0" d="M76.9,122.8h1.4l3.4,8.9h-1.8l-0.9-2.1h-3l-0.9,2.1h-1.8L76.9,122.8z M78.9,128.4l-1.1-3.4l-1.3,3.4H78.9z"/>
	<path class="st0" d="M90.1,131.8v-5.9l-2.3,4.5h-1.1l-2.3-4.5v5.9h-1.6v-8.9h1.8l2.7,5.2l2.7-5.2h1.8v8.9
		C91.7,131.8,90.1,131.8,90.1,131.8z"/>
	<path class="st0" d="M97.4,131.8c-0.7,0-1.3-0.2-1.8-0.4c-0.5-0.4-1.1-0.7-1.3-1.1c-0.4-0.5-0.7-0.9-0.9-1.4
		c-0.2-0.5-0.4-1.1-0.4-1.6c0-0.7,0.2-1.1,0.4-1.6c0.2-0.5,0.5-1.1,1.1-1.4c0.4-0.5,0.9-0.9,1.3-1.1c0.5-0.2,1.1-0.4,1.8-0.4
		c0.7,0,1.1,0.2,1.8,0.4c0.5,0.4,1.1,0.7,1.3,1.1c0.4,0.5,0.7,1.1,0.9,1.4c0.2,0.5,0.4,1.1,0.4,1.6c0,0.7-0.2,1.1-0.4,1.6
		c-0.2,0.5-0.5,1.1-0.9,1.4c-0.4,0.4-0.9,0.7-1.3,1.1C98.7,131.8,98,131.8,97.4,131.8z M94.8,127.3c0,0.4,0,0.9,0.2,1.1
		c0.2,0.4,0.4,0.7,0.5,1.1s0.5,0.5,0.9,0.7c0.4,0.2,0.7,0.4,1.1,0.4c0.4,0,0.9-0.2,1.1-0.4c0.4-0.2,0.7-0.4,0.9-0.7
		c0.2-0.4,0.4-0.7,0.5-1.1c0.2-0.4,0.2-0.7,0.2-1.1s0-0.9-0.2-1.1c-0.2-0.4-0.4-0.7-0.5-1.1c-0.2-0.4-0.5-0.5-0.9-0.7
		c-0.4-0.2-0.7-0.2-1.1-0.2c-0.4,0-0.9,0.2-1.1,0.4c-0.4,0.2-0.7,0.4-0.9,0.7c-0.2,0.4-0.4,0.7-0.5,1.1
		C94.8,126.8,94.8,126.9,94.8,127.3z"/>
	<path class="st0" d="M108.3,125.1c0,0-0.2-0.2-0.4-0.2c-0.2-0.2-0.4-0.2-0.5-0.4c-0.2-0.2-0.5-0.2-0.7-0.2c-0.4,0-0.5-0.2-0.9-0.2
		c-0.5,0-0.9,0.2-1.1,0.4c-0.2,0.2-0.4,0.5-0.4,0.7c0,0.2,0,0.4,0.2,0.5c0.2,0.2,0.2,0.2,0.4,0.4c0.2,0.2,0.4,0.2,0.7,0.4
		c0.4,0,0.5,0.2,0.9,0.2c0.5,0.2,0.9,0.2,1.1,0.4c0.4,0.2,0.7,0.4,0.9,0.5c0.2,0.2,0.5,0.5,0.5,0.7c0.2,0.4,0.2,0.7,0.2,1.1
		c0,0.5-0.2,0.9-0.4,1.1c-0.2,0.4-0.5,0.7-0.7,0.9c-0.4,0.2-0.7,0.4-1.1,0.5c-0.4,0.2-0.9,0.2-1.3,0.2c-0.7,0-1.3-0.2-2-0.4
		s-1.1-0.5-1.8-0.9l0.9-1.4c0,0,0.2,0.2,0.4,0.4c0.2,0.2,0.5,0.2,0.7,0.4c0.4,0.2,0.5,0.2,0.9,0.4c0.4,0.2,0.7,0.2,1.1,0.2
		c1.1,0,1.4-0.4,1.4-1.1c0-0.2,0-0.4-0.2-0.5c-0.2-0.2-0.4-0.4-0.5-0.4c-0.2-0.2-0.5-0.2-0.7-0.4c-0.4,0-0.7-0.2-1.1-0.4
		c-0.5-0.2-0.9-0.2-1.1-0.4c-0.4-0.2-0.5-0.4-0.9-0.5c-0.2-0.2-0.4-0.4-0.5-0.7c-0.2-0.2-0.2-0.5-0.2-0.9c0-0.5,0.2-0.9,0.4-1.1
		c0.2-0.4,0.4-0.7,0.7-0.9c0.4-0.2,0.7-0.4,1.1-0.5c0.4-0.2,0.9-0.2,1.3-0.2c0.7,0,1.1,0.2,1.6,0.4s1.1,0.5,1.3,0.7L108.3,125.1z"/>
	<path class="st0" d="M117.5,130.3c0.4,0,0.9,0,1.1-0.4c0.4-0.2,0.5-0.4,0.7-0.7c0.2-0.4,0.4-0.5,0.4-1.1c0-0.4,0.2-0.7,0.2-1.1
		v-4.5h1.6v4.5c0,0.7,0,1.1-0.2,1.6c-0.2,0.5-0.4,1.1-0.7,1.3c-0.4,0.4-0.7,0.7-1.1,1.1c-0.5,0.2-1.1,0.4-1.8,0.4s-1.3-0.2-1.8-0.4
		c-0.5-0.2-0.9-0.5-1.1-1.1c-0.4-0.4-0.5-0.9-0.7-1.4c-0.2-0.5-0.2-1.1-0.2-1.6v-4.5h1.6v4.5c0,0.4,0,0.7,0.2,1.1
		c0,0.4,0.2,0.7,0.4,1.1c0.2,0.4,0.4,0.5,0.7,0.7C116.9,130.3,117.1,130.3,117.5,130.3z"/>
	<path class="st0" d="M125,126v5.5h-1.6v-8.9h1.3l4.6,5.7v-5.7h1.6v8.9h-1.3L125,126z"/>
	<path class="st0" d="M143,131.8v-5.9l-2.3,4.5h-1.1l-2.3-4.5v5.9h-1.6v-8.9h1.8l2.7,5.2l2.7-5.2h1.8v8.9H143z"/>
	<path class="st0" d="M150.3,130.3c0.4,0,0.9,0,1.1-0.4c0.4-0.2,0.5-0.4,0.7-0.7c0.2-0.4,0.4-0.5,0.4-1.1c0-0.4,0.2-0.7,0.2-1.1
		v-4.5h1.4v4.5c0,0.7,0,1.1-0.2,1.6c-0.2,0.5-0.4,1.1-0.7,1.3c-0.4,0.4-0.7,0.7-1.1,1.1c-0.4,0.4-1.1,0.4-1.8,0.4s-1.3-0.2-1.8-0.4
		c-0.5-0.2-0.9-0.5-1.1-1.1c-0.4-0.4-0.5-0.9-0.7-1.4c-0.2-0.7-0.2-1.1-0.2-1.6v-4.5h1.6v4.5c0,0.4,0,0.7,0.2,1.1
		c0,0.4,0.2,0.7,0.4,1.1c0.2,0.4,0.4,0.5,0.7,0.7C149.6,130.3,150,130.3,150.3,130.3z"/>
	<path class="st0" d="M157.7,126v5.5h-1.6v-8.9h1.3l4.6,5.7v-5.7h1.6v8.9h-1.3L157.7,126z"/>
	<path class="st0" d="M165.5,131.8v-8.9h3.4c0.7,0,1.3,0.2,2,0.4c0.5,0.2,1.1,0.5,1.3,1.1c0.4,0.4,0.7,0.9,0.9,1.4
		c0.2,0.5,0.4,1.1,0.4,1.6c0,0.7-0.2,1.3-0.4,1.8c-0.2,0.5-0.5,1.1-0.9,1.3c-0.4,0.2-0.9,0.7-1.3,0.9c-0.5,0.2-1.1,0.4-1.8,0.4
		L165.5,131.8L165.5,131.8z M171.4,127.3c0-0.5,0-0.9-0.2-1.1c-0.2-0.4-0.4-0.7-0.5-1.1c-0.2-0.4-0.5-0.5-0.9-0.7
		c-0.4-0.2-0.7-0.2-1.1-0.2h-1.4v5.7h1.4c0.5,0,0.9,0,1.1-0.2c0.4-0.2,0.7-0.4,0.9-0.7c0.2-0.4,0.4-0.5,0.5-1.1
		C171.3,128.2,171.4,127.7,171.4,127.3z"/>
	<path class="st0" d="M178.2,131.8c-0.7,0-1.3-0.2-1.8-0.4c-0.5-0.4-1.1-0.7-1.3-1.1c-0.4-0.5-0.7-0.9-0.9-1.4
		c-0.2-0.5-0.4-1.1-0.4-1.6c0-0.7,0.2-1.1,0.4-1.6c0.2-0.5,0.5-1.1,1.1-1.4c0.4-0.5,0.9-0.9,1.3-1.1c0.5-0.2,1.1-0.4,1.8-0.4
		c0.7,0,1.1,0.2,1.8,0.4c0.5,0.4,1.1,0.7,1.3,1.1c0.4,0.5,0.7,1.1,0.9,1.4c0.2,0.5,0.4,1.1,0.4,1.6c0,0.7-0.2,1.1-0.4,1.6
		s-0.5,1.1-0.9,1.4c-0.4,0.4-0.9,0.7-1.3,1.1C179.7,131.8,178.9,131.8,178.2,131.8z M175.7,127.3c0,0.4,0,0.9,0.2,1.1
		c0.2,0.4,0.4,0.7,0.5,1.1s0.5,0.5,0.9,0.7s0.7,0.4,1.1,0.4c0.5,0,0.9-0.2,1.1-0.4c0.4-0.2,0.7-0.4,0.9-0.7c0.2-0.4,0.4-0.7,0.5-1.1
		c0.2-0.4,0.2-0.7,0.2-1.1s0-0.9-0.2-1.1c-0.2-0.4-0.4-0.7-0.5-1.1c-0.2-0.4-0.5-0.5-0.9-0.7s-0.7-0.2-1.1-0.2
		c-0.5,0-0.9,0.2-1.1,0.4c-0.4,0.2-0.7,0.4-0.9,0.7c-0.2,0.4-0.4,0.7-0.5,1.1C175.7,126.8,175.7,126.9,175.7,127.3z"/>
	<path class="st0" d="M194.3,131.8v-5.9l-2.3,4.5h-1.1l-2.3-4.5v5.9H187v-8.9h1.8l2.7,5.2l2.7-5.2h1.8v8.9H194.3z"/>
	<path class="st0" d="M204.1,130.3v1.4h-6.1v-8.9h6.1v1.4h-4.3v2.1h3.8v1.3h-3.8v2.3L204.1,130.3L204.1,130.3z"/>
	<path class="st0" d="M204.9,130c0.2,0,0.4,0.2,0.7,0.4c0.4,0.2,0.7,0.2,1.1,0.2s0.7,0,0.9-0.2c0.2-0.2,0.4-0.4,0.5-0.5
		c0.2-0.4,0.2-0.5,0.2-1.1c0-0.4,0-0.9,0-1.3V123h1.6v4.5c0,0.7,0,1.3-0.2,1.8c0,0.5-0.2,1.1-0.5,1.4c-0.2,0.4-0.5,0.7-1.1,1.1
		c-0.5,0.2-1.1,0.4-1.8,0.4c-0.9,0-1.3-0.2-2-0.5L204.9,130z"/>
	<path class="st0" d="M215.4,131.8c-0.7,0-1.3-0.2-1.8-0.4c-0.5-0.4-1.1-0.7-1.3-1.1c-0.4-0.5-0.7-0.9-0.9-1.4
		c-0.2-0.5-0.4-1.1-0.4-1.6c0-0.7,0.2-1.1,0.4-1.6c0.2-0.5,0.5-1.1,1.1-1.4c0.4-0.5,0.9-0.9,1.3-1.1c0.5-0.2,1.1-0.4,1.8-0.4
		s1.1,0.2,1.8,0.4c0.5,0.4,1.1,0.7,1.3,1.1c0.4,0.5,0.7,1.1,0.9,1.4c0.2,0.4,0.4,1.1,0.4,1.6c0,0.7-0.2,1.1-0.4,1.6
		c-0.2,0.5-0.5,1.1-0.9,1.4c-0.4,0.5-0.9,0.7-1.3,1.1C216.5,131.8,215.9,131.8,215.4,131.8z M212.7,127.3c0,0.4,0,0.9,0.2,1.1
		c0.2,0.4,0.4,0.7,0.5,1.1s0.5,0.5,0.9,0.7s0.7,0.4,1.1,0.4c0.5,0,0.9-0.2,1.1-0.4c0.4-0.2,0.7-0.4,0.9-0.7c0.2-0.4,0.4-0.7,0.5-1.1
		c0.2-0.4,0.2-0.7,0.2-1.1s0-0.9-0.2-1.1c-0.2-0.4-0.4-0.7-0.5-1.1c-0.2-0.4-0.5-0.5-0.9-0.7s-0.7-0.2-1.1-0.2
		c-0.5,0-0.9,0.2-1.1,0.4c-0.4,0.2-0.7,0.4-0.9,0.7c-0.2,0.4-0.4,0.7-0.5,1.1C212.9,126.6,212.7,126.9,212.7,127.3z"/>
	<path class="st0" d="M220.9,131.8v-8.9h3.9c0.4,0,0.9,0.2,1.1,0.4c0.4,0.2,0.7,0.4,0.9,0.7c0.4,0.4,0.5,0.7,0.7,1.1
		c0.2,0.4,0.2,0.7,0.2,1.1c0,0.5-0.2,1.1-0.5,1.6c-0.4,0.5-0.7,0.9-1.1,1.1l2,3.4h-2l-1.8-3h-1.6v3
		C222.5,131.8,220.9,131.8,220.9,131.8z M222.7,127.3h2.1c0.2,0,0.4,0,0.5-0.2s0.4-0.2,0.4-0.4c0.2-0.2,0.2-0.4,0.2-0.5
		c0-0.2,0.2-0.4,0.2-0.5c0-0.2,0-0.4-0.2-0.5c0-0.2-0.2-0.4-0.4-0.5c-0.2-0.2-0.2-0.2-0.4-0.4c-0.2,0-0.4-0.2-0.5-0.2h-2.1
		L222.7,127.3L222.7,127.3z"/>
</g>
</svg>
